<?xml version="1.0" standalone="no"?>
<!DOCTYPE svg PUBLIC "-//W3C//DTD SVG 20010904//EN"
 "http://www.w3.org/TR/2001/REC-SVG-20010904/DTD/svg10.dtd">
<svg version="1.0" xmlns="http://www.w3.org/2000/svg"
 width="336.000000pt" height="336.000000pt" viewBox="0 0 336.000000 336.000000"
 preserveAspectRatio="xMidYMid meet">
<metadata>
Created by potrace 1.14, written by Peter Selinger 2001-2017
</metadata>
<g transform="translate(0.000000,336.000000) scale(0.100000,-0.100000)"
fill="#000000" stroke="none">
<path d="M1462 3345 c-40 -7 -79 -18 -87 -25 -7 -6 -17 -30 -20 -53 -4 -23 -9
-51 -11 -62 -3 -11 -7 -54 -10 -95 -3 -41 -9 -92 -14 -112 -4 -20 -5 -39 -2
-43 3 -3 162 -5 354 -5 l348 0 -5 58 c-3 31 -8 73 -10 92 -2 19 -7 62 -11 95
-3 33 -13 76 -21 96 -13 33 -19 37 -61 44 -26 3 -56 9 -67 12 -46 11 -313 10
-383 -2z"/>
<path d="M1070 3033 c-30 -18 -61 -33 -67 -33 -7 0 -13 -4 -13 -9 0 -5 -9 -12
-19 -16 -31 -9 -183 -114 -223 -153 -28 -26 -39 -47 -44 -79 -11 -76 -10 -954
1 -961 17 -11 417 -8 421 3 2 6 3 296 2 646 l-3 635 -55 -33z"/>
<path d="M2260 2806 c-68 -22 -67 -18 -68 -551 l-1 -475 215 0 214 0 1 438 c1
507 1 499 -12 534 -21 52 -51 62 -189 64 -70 1 -140 -3 -160 -10z"/>
<path d="M1344 2660 l1 -105 323 0 323 0 -3 105 -3 104 -321 1 -322 0 2 -105z"/>
<path d="M1345 2268 l-1 -98 326 0 325 0 -1 93 c-1 50 -2 94 -3 97 0 3 -146 5
-324 5 l-322 0 0 -97z"/>
<path d="M152 2349 c-25 -9 -48 -39 -58 -74 -8 -32 -13 -494 -4 -496 3 -1 98
-2 212 -3 134 -1 209 2 211 9 1 5 2 119 1 251 -1 232 -2 243 -23 273 -12 17
-32 33 -44 36 -33 8 -275 11 -295 4z"/>
<path d="M2980 2169 c-30 -4 -67 -12 -82 -19 -34 -16 -65 -78 -73 -145 -3 -27
-8 -63 -10 -80 -2 -16 -5 -57 -6 -90 l-3 -60 238 -2 c221 -2 237 -1 232 15 -5
18 -23 110 -32 158 -17 104 -54 183 -95 205 -32 17 -109 25 -169 18z"/>
<path d="M1329 1945 c-4 -41 7 -155 16 -163 2 -2 149 -4 327 -4 l323 -1 -2 29
c-1 16 -3 55 -4 87 -1 31 -5 58 -8 58 -3 1 -151 2 -328 3 -212 1 -323 -2 -324
-9z"/>
<path d="M85 1547 c37 -576 272 -992 725 -1282 156 -100 412 -206 566 -234 32
-6 70 -14 84 -17 14 -3 95 -7 180 -9 248 -6 455 42 692 159 427 212 713 539
833 951 44 153 58 236 70 423 l7 102 -327 -2 -327 -3 -4 -81 c-4 -96 -27 -214
-56 -293 -109 -292 -361 -515 -655 -578 -117 -25 -353 -22 -458 6 -85 22 -203
76 -273 123 -112 77 -230 209 -296 332 -38 71 -90 213 -101 276 -3 19 -7 42
-10 50 -2 8 -6 40 -10 70 -3 30 -7 64 -9 75 -3 19 -11 20 -320 22 l-317 1 6
-91z"/>
<path d="M907 1612 c-6 -28 -2 -176 6 -202 2 -8 7 -28 12 -45 4 -16 19 -52 33
-80 109 -220 350 -405 582 -449 353 -68 751 188 861 553 22 73 31 214 15 239
-5 9 -202 12 -755 11 l-749 0 -5 -27z"/>
</g>
</svg>
